<svg width="148" height="66" viewBox="0 0 148 66" fill="none" xmlns="http://www.w3.org/2000/svg">
<path fill-rule="evenodd" clip-rule="evenodd" d="M94.1379 20.4291L94.1269 23.8466H93.6308L93.6419 20.4291L92.4292 20.4181V20.0322L95.3506 20.0432V20.4291H94.1379Z" fill="white"/>
<path fill-rule="evenodd" clip-rule="evenodd" d="M99.5289 23.8686L99.54 20.44L98.184 23.8686H97.732L96.3981 20.429L96.3871 23.8575H95.9351L95.9461 20.0542H96.7398L97.9855 23.2733L99.2203 20.0652H100.003L99.9919 23.8686H99.5289Z" fill="white"/>
<path fill-rule="evenodd" clip-rule="evenodd" d="M41.1447 52.9944C41.3738 51.262 41.2842 49.5022 40.8801 47.8021L39.0832 48.3202C39.4089 49.5564 39.5354 50.8365 39.458 52.1125C37.7412 51.0053 36.2855 49.5384 35.1917 47.8131L34.9381 47.4272C35.3791 46.1925 36.1177 44.7814 36.3602 44.0428C37.3965 40.8017 36.1508 38.641 33.7585 39.1261C32.2923 39.4237 30.5615 40.0741 30.6828 42.279C30.9878 44.1489 31.7447 45.9161 32.8876 47.4272L32.9427 47.5375C32.9427 47.5375 31.0025 51.2306 31.9726 53.4464C32.9427 55.6623 34.5192 57.2498 37.0658 56.9962C37.6472 56.9813 38.2196 56.8485 38.7483 56.606C39.277 56.3634 39.7509 56.0161 40.1415 55.5851C40.2974 55.3523 40.4303 55.105 40.5384 54.8465C41.1084 55.0755 41.733 55.133 42.3353 55.0119L41.9936 53.259C41.9936 53.259 41.4203 53.0937 41.1447 52.9944V52.9944ZM33.5711 40.482C36.0626 39.9749 34.7838 43.4475 34.1664 45.1893C34.1664 45.3106 34.0672 45.4539 34.0011 45.6083C32.3474 42.8081 31.6529 40.8679 33.5711 40.482ZM37.4847 55.2103C34.0452 55.9158 33.075 51.44 34.1774 49.2242C35.5486 51.1622 37.2413 52.8513 39.1824 54.2181C38.7452 54.7316 38.1466 55.0814 37.4847 55.2103Z" fill="white"/>
<path fill-rule="evenodd" clip-rule="evenodd" d="M21.8418 15.435L26.7034 15.0381L27.9933 31.0121L36.8236 29.6671L37.3528 35.4217L23.5616 36.8659L21.8418 15.435Z" fill="white"/>
<path fill-rule="evenodd" clip-rule="evenodd" d="M45.8299 41.375L50.9892 41.4081L50.8459 59.4877L59.3565 59.3554L59.103 64.5698L45.6646 64.1288L45.8299 41.375Z" fill="white"/>
<path fill-rule="evenodd" clip-rule="evenodd" d="M39.5683 27.9915C39.7557 31.4641 42.4235 34.8816 45.4662 35.1462C48.5089 35.4108 53.3374 34.4407 54.4288 29.4908C55.5202 24.541 55.1233 15.3028 55.1233 15.3028L39.0942 14.939L39.5683 27.9915Z" fill="white"/>
<path fill-rule="evenodd" clip-rule="evenodd" d="M76.9624 15.0493L80.6665 13.4619L85.0982 22.8434L87.5566 11.7201L92.4624 11.5547L85.1644 40.2285L80.3578 40.3718L83.7423 27.661L76.9624 15.0493Z" fill="white"/>
<path fill-rule="evenodd" clip-rule="evenodd" d="M93.2338 53.8432C93.0574 58.2528 91.8117 65.4516 86.4429 65.661H85.9027C80.1702 65.4295 78.8914 58.8922 78.8804 54.0195C78.8804 49.3674 80.534 42.5765 86.013 42.4552C89.3202 42.378 91.1172 43.5576 92.0542 45.9829C92.9469 48.5072 93.3473 51.1792 93.2338 53.8542C93.0905 57.2606 93.2999 52.0683 93.2338 53.8542" fill="white"/>
<path fill-rule="evenodd" clip-rule="evenodd" d="M64.2073 52.6087H75.3858C75.3858 52.6087 76.0582 42.687 68.6169 41.9484C65.7507 41.6617 63.5789 41.805 62.0025 43.3815C59.6212 45.9501 58.8716 50.911 59.7535 54.1411C62.719 65.055 68.5728 64.162 68.5728 64.162C69.8488 64.1455 71.1075 63.8657 72.2703 63.3402C73.4332 62.8148 74.475 62.055 75.3306 61.1083V57.0184C75.3306 57.0184 71.2186 59.598 69.1241 59.6311C68.0769 59.6093 67.0621 59.2637 66.2192 58.6419C65.3763 58.0201 64.7467 57.1526 64.4167 56.1585C64.0124 55.0202 63.921 53.7943 64.1522 52.6087" fill="white"/>
<path fill-rule="evenodd" clip-rule="evenodd" d="M75.7275 17.1658V21.5754C75.7275 21.5754 71.825 19.6572 68.9697 19.6462C66.1145 19.6352 62.5426 20.6274 62.5316 25.489C62.5206 30.3506 65.9711 30.2625 67.4704 30.2625C68.9697 30.2625 73.5999 28.9837 74.9558 27.2859V31.9492C72.0275 34.3527 68.3483 35.6519 64.5601 35.6202C58.144 35.6202 57.4715 27.782 57.4826 25.015C57.4826 21.1675 62.0245 14.509 67.9996 14.4759C73.9747 14.4428 75.7165 17.1107 75.7165 17.1107" fill="white"/>
<path fill-rule="evenodd" clip-rule="evenodd" d="M5.91174 13.517C5.31133 13.1414 4.60412 12.9736 3.89898 13.0393C3.19384 13.105 2.52984 13.4007 2.00919 13.8808C2.00919 9.47112 1.921 5.11659 1.54618 0.740001C1.46901 -0.241147 -0.0743698 -0.252171 0.00279918 0.740001C0.454789 6.02056 0.421717 11.3232 0.487861 16.6258C0.327599 18.0121 0.353553 19.4135 0.565031 20.7929C0.469055 20.8775 0.395958 20.9849 0.352502 21.1052C0.309046 21.2255 0.296635 21.3549 0.316417 21.4812C0.336199 21.6076 0.387535 21.727 0.465675 21.8283C0.543816 21.9295 0.646237 22.0095 0.763465 22.0607C0.842676 22.1825 0.955121 22.2791 1.0875 22.339C1.21988 22.3989 1.36665 22.4197 1.51045 22.3988C1.65425 22.3779 1.78906 22.3163 1.89893 22.2212C2.00881 22.1261 2.08915 22.0016 2.13046 21.8623C5.72433 20.815 9.70405 16.736 5.91174 13.517ZM2.11943 20.3299C2.11943 19.1503 2.11943 17.9707 2.04227 16.7911C3.31004 13.6493 4.24709 14.2776 4.87547 18.7094C4.1268 19.4971 3.17182 20.0587 2.11943 20.3299V20.3299Z" fill="white"/>
<path fill-rule="evenodd" clip-rule="evenodd" d="M13.0114 10.0554C12.918 12.2715 12.6934 14.4802 12.339 16.6699C10.9279 14.465 9.81444 11.9956 7.80804 10.1656C7.06943 9.49315 5.97804 10.5735 6.70563 11.268C9.05377 13.4067 10.1121 16.4384 11.9862 18.9849C11.9311 19.3267 11.876 19.6684 11.8319 20.0102C11.5452 21.8843 11.2366 23.7584 10.8948 25.6325C10.7405 26.5144 10.6853 28.7303 10.068 29.4358C9.45064 30.1414 10.4869 31.2768 11.1704 30.5382C12.7689 28.7523 12.7138 24.3537 13.0776 22.1378C13.8364 18.1474 14.3299 14.1111 14.5548 10.0554C14.5548 9.85071 14.4735 9.65443 14.3288 9.50971C14.1841 9.36499 13.9878 9.28369 13.7831 9.28369C13.5785 9.28369 13.3822 9.36499 13.2375 9.50971C13.0927 9.65443 13.0114 9.85071 13.0114 10.0554" fill="white"/>
<path fill-rule="evenodd" clip-rule="evenodd" d="M124.367 29.2296C124.367 29.2296 126.592 20.7689 123.886 16.8682C121.181 12.9675 112.638 12.5143 112.143 21.2634C111.704 28.6802 120.384 34.3389 120.384 34.3389L124.367 29.2296Z" fill="#FED256"/>
<path fill-rule="evenodd" clip-rule="evenodd" d="M116.827 42.3603L119.78 34.8198C119.78 34.8198 102.048 28.804 100.112 38.8441C98.5597 46.9477 114.08 45.5605 116.827 42.3603" fill="#FED256"/>
<path fill-rule="evenodd" clip-rule="evenodd" d="M117.72 41.7697C117.72 41.7697 116.745 63.7454 125.192 58.5674C136.976 51.3704 121.511 37.1411 121.511 37.1411L117.72 41.7697Z" fill="#FED256"/>
<path fill-rule="evenodd" clip-rule="evenodd" d="M123.722 37.5394C123.722 37.5394 129.82 47.4284 141.371 46.0549C149.873 45.0248 147.676 31.6334 141.852 31.2213C136.029 30.8093 125.975 33.1854 125.975 33.1854L123.722 37.5394Z" fill="#FED256"/>
<path fill-rule="evenodd" clip-rule="evenodd" d="M114.795 46.4944C114.867 46.544 114.954 46.5706 115.042 46.5706C115.13 46.5706 115.216 46.544 115.289 46.4944C126.661 37.7454 128.502 28.7628 128.79 26.6614L141.001 17.3492C141.075 17.268 141.118 17.1632 141.123 17.0532C141.127 16.9432 141.093 16.8352 141.026 16.7481C140.958 16.661 140.862 16.6006 140.755 16.5774C140.647 16.5541 140.535 16.5697 140.437 16.6212V16.6212L129.147 25.2329L134.875 10.2208C134.907 10.164 134.926 10.101 134.931 10.0361C134.937 9.97114 134.928 9.90581 134.906 9.84455C134.884 9.78328 134.849 9.72751 134.803 9.68104C134.757 9.63457 134.702 9.59849 134.641 9.57526C134.57 9.53427 134.49 9.5127 134.408 9.5127C134.326 9.5127 134.245 9.53427 134.174 9.57526C134.111 9.6184 134.062 9.68103 134.037 9.75381L127.788 26.057L126.579 26.9223C120.213 31.5136 115.898 38.4165 114.561 46.1511C114.549 46.2396 114.565 46.3296 114.607 46.4085C114.649 46.4874 114.714 46.5511 114.795 46.5906" fill="white"/>
</svg>
