<svg width="1024" height="1024" viewBox="0 0 1024 1024" fill="none" xmlns="http://www.w3.org/2000/svg">
<path d="M512 64C264.6 64 64 264.6 64 512C64 759.4 264.6 960 512 960C759.4 960 960 759.4 960 512C960 264.6 759.4 64 512 64ZM656.1 518.9L437.7 677.8C436.503 678.66 435.091 679.174 433.621 679.285C432.151 679.395 430.679 679.098 429.366 678.426C428.054 677.755 426.952 676.734 426.181 675.477C425.411 674.22 425.002 672.774 425 671.3V353.7C424.995 352.223 425.399 350.773 426.168 349.511C426.937 348.25 428.04 347.225 429.355 346.552C430.67 345.879 432.146 345.583 433.619 345.698C435.092 345.812 436.504 346.332 437.7 347.2L656.1 506C657.132 506.73 657.973 507.696 658.554 508.819C659.135 509.941 659.438 511.186 659.438 512.45C659.438 513.714 659.135 514.959 658.554 516.081C657.973 517.204 657.132 518.17 656.1 518.9V518.9Z" fill="black"/>
</svg>
